<?xml version="1.0" encoding="UTF-8" standalone="no"?>
<svg
   xmlns:dc="http://purl.org/dc/elements/1.1/"
   xmlns:cc="http://creativecommons.org/ns#"
   xmlns:rdf="http://www.w3.org/1999/02/22-rdf-syntax-ns#"
   xmlns:svg="http://www.w3.org/2000/svg"
   xmlns="http://www.w3.org/2000/svg"
   viewBox="0 0 6666.6665 6666.6665"
   height="6666.6665"
   width="6666.6665"
   xml:space="preserve"
   id="svg2"
   version="1.1"><metadata
     id="metadata8"><rdf:RDF><cc:Work
         rdf:about=""><dc:format>image/svg+xml</dc:format><dc:type
           rdf:resource="http://purl.org/dc/dcmitype/StillImage" /></cc:Work></rdf:RDF></metadata><defs
     id="defs6" /><g
     transform="matrix(1.3333333,0,0,-1.3333333,0,6666.6667)"
     id="g10"><g
       transform="scale(0.1)"
       id="g12"><path
         id="path14"
         style="fill:#f7f5ff;fill-opacity:1;fill-rule:nonzero;stroke:none"
         d="m 14471.6,8813 c 0,-510.7 -2456.1,-925 -5485.96,-925 -3029.59,0 -5485.64,414.3 -5485.64,925 0,510.8 2456.05,925.1 5485.64,925.1 3029.86,0 5485.96,-414.3 5485.96,-925.1" /><g
         transform="scale(2.8544)"
         id="g16"><path
           id="path18"
           style="fill:#edebff;fill-opacity:1;fill-rule:nonzero;stroke:none"
           d="m 16289.1,10388.5 c -4.2,98.1 -17.8,196.4 -39.6,292.6 -23.5,104.5 -56.7,206.6 -98.3,303 -101,234.2 -243.8,440.5 -406.5,628.9 -118.3,137.9 -247.8,266.2 -378.7,389.3 -306.4,287.7 -628.1,553.7 -963.2,798.1 -1452.3,1062.6 -3242.7,1766.9 -5147.28,1920.6 -1213.49,98 -2416.09,-29.2 -3576.58,-347.7 -1085.3,-298.4 -2133.82,-764.5 -3120.23,-1371.4 -467.78,-287.9 -808.57,-821.1 -860.31,-1414.4 -62.09,-709.9 299.03,-1442.5 872.88,-1771.51 184.83,-105.95 400.37,-184.42 511.58,-378.79 123.86,-216.54 68.62,-511.87 -66.81,-720.08 -135.44,-207.89 -335.91,-350.26 -526.87,-496 -321.08,-245.1 -634.49,-525.79 -885.99,-853.45 -213.25,-277.82 -292.91,-643.26 -199.21,-993.45 187.16,-699.38 620.43,-1160.1 1165.26,-1487.39 l 12098.56,28.59 c 253.3,464.97 330.3,1056.09 83.7,1516.71 -258.7,482.73 -831.1,782.72 -874.9,1341.22 -43.6,555.39 473.7,956.07 950.7,1140.1 477.3,183.75 1028.2,316.14 1304.5,782.55 121.2,204.49 168.2,447.6 157.3,692.5" /></g><g
         transform="scale(2.85249)"
         id="g20"><path
           id="path22"
           style="fill:#ffffff;fill-opacity:1;fill-rule:nonzero;stroke:none"
           d="m 16260.4,10688.3 c -300.1,-651.9 -914,-1100.33 -1621.4,-1102.01 -1005.1,-2.39 -1824.7,897.21 -1827.3,2005.61 -1.7,720.4 342.2,1354.3 859.1,1710.2 -55.8,33.8 -111.8,67 -168.2,99.6 -520.2,-397.3 -860.6,-1060.8 -858.8,-1810.2 2.8,-1210.2 897.9,-2193.01 1995.6,-2190.42 694.3,1.65 1306,397.27 1660.6,994.42 -4.1,98.1 -17.8,196.6 -39.6,292.8" /></g><g
         transform="scale(2.48771)"
         id="g24"><path
           id="path26"
           style="fill:#ffffff;fill-opacity:1;fill-rule:nonzero;stroke:none"
           d="m 5882.99,16300 c -61.54,-20 -122.48,-40.6 -183.7,-62 107.77,-397.5 119.71,-831.8 14.19,-1260.6 -301.96,-1226.3 -1451.97,-1952.8 -2564.05,-1619.2 -398.85,119.7 -739.58,359.6 -998.01,674.7 -32.57,-67.7 -61.61,-137.5 -86.79,-208.7 275.11,-311.9 626.74,-548.9 1034.26,-671.1 1214.19,-364.1 2470.6,429.2 2800.22,1768.8 115.37,468.9 102.07,943.4 -16.12,1378.1" /></g><g
         transform="scale(2.34831)"
         id="g28"><path
           id="path30"
           style="fill:#ffffff;fill-opacity:1;fill-rule:nonzero;stroke:none"
           d="m 15149.1,15927.7 c -87.7,-21.9 -175.1,38.4 -195.1,135.6 -20,96.7 35.2,192.8 122.9,214.7 87.6,22 175.1,-38.4 195,-135.1 20.1,-97.1 -35.1,-193.2 -122.8,-215.2" /></g><g
         transform="scale(2.5198)"
         id="g32"><path
           id="path34"
           style="fill:#5652e5;fill-opacity:1;fill-rule:nonzero;stroke:none"
           d="m 16090.2,15351.9 c -4.7,8.2 -1.8,18.7 6.4,23.3 58.5,33.2 117.1,66 175.5,98.8 8.3,4.6 18.7,1.7 23.3,-6.5 4.6,-8.2 1.7,-18.7 -6.6,-23.3 -58.4,-32.7 -116.9,-65.6 -175.3,-98.7 -8.3,-4.7 -18.7,-1.8 -23.3,6.4 z m -469.5,-280.6 c -5.1,8 -2.7,18.6 5.2,23.6 71.8,45.9 148.2,92.8 233.6,143.3 8.1,4.8 18.6,2.2 23.4,-6 4.8,-8.1 2.1,-18.6 -5.9,-23.4 -85.1,-50.4 -161.2,-97.1 -232.6,-142.7 -8.1,-5.1 -18.7,-2.7 -23.7,5.2 z m -443.8,-319 c -6,7.3 -4.8,18.1 2.5,24 67.9,55.1 141.5,110.9 218.8,165.7 7.7,5.4 18.4,3.7 23.9,-4 5.4,-7.7 3.6,-18.4 -4.1,-23.9 -76.7,-54.4 -149.7,-109.7 -217.1,-164.3 -7.3,-6 -18,-4.9 -24,2.5 z m -391.9,-380.4 c -7.1,6.2 -7.9,17 -1.7,24.1 5.4,5.9 76.4,90.7 189.7,199 6.9,6.5 17.7,6.3 24.2,-0.6 6.5,-6.8 6.3,-17.6 -0.5,-24.1 -111.7,-106.7 -182.3,-191 -187.6,-196.7 -6.2,-7.2 -17.1,-7.8 -24.1,-1.7 z m -262.9,-473.9 c -9.1,2.4 -14.7,11.7 -12.3,20.9 21.3,82.9 58.3,168.5 110,254.7 4.8,8.1 15.4,10.6 23.4,5.8 8.1,-4.8 10.8,-15.4 5.9,-23.5 -50,-83.2 -85.7,-165.8 -106.2,-245.6 -2.4,-9.2 -11.8,-14.6 -20.8,-12.3 z m 77.9,-528.8 c -6.1,0 -12,3.3 -15.1,9 -46.9,87.3 -77.2,175.7 -90.2,262.8 -1.4,9.3 5,18 14.3,19.4 9.6,1.3 18.1,-5 19.5,-14.4 12.4,-83.2 41.5,-167.8 86.6,-251.6 4.4,-8.3 1.3,-18.7 -7,-23.1 -2.6,-1.4 -5.4,-2.1 -8.1,-2.1 z m 336.8,-414 c -75.8,69.1 -138.9,133.4 -193.1,196.5 -6.1,7.1 -5.3,17.9 1.9,24.1 7.1,6.1 17.9,5.3 24,-1.9 53.3,-61.9 115.5,-125.2 190.2,-193.5 7,-6.3 7.5,-17.2 1.1,-24.2 -6.4,-6.9 -17.2,-7.4 -24.1,-1 z m 408.5,-362.4 c -55,54.7 -117.1,111.2 -201.2,183.2 -7.2,6.2 -8,17 -1.9,24.1 6.2,7.2 17,8 24.1,1.9 84.8,-72.6 147.4,-129.7 203.1,-185 6.7,-6.7 6.7,-17.5 0.1,-24.2 -6.6,-6.7 -17.4,-6.7 -24.2,0 z m -638.2,-70.4 c -89.6,11.9 -180.5,17.2 -270.2,16 -8.6,0.4 -17.2,7.4 -17.3,16.9 -0.1,9.4 7.4,17.1 16.8,17.3 91.6,1.2 184,-4.2 275.2,-16.3 9.4,-1.3 16,-9.8 14.7,-19.2 -1.2,-9.3 -9.7,-15.9 -19.2,-14.7 z m -806.3,-78.4 c -6.9,0 -13.3,4.1 -15.9,10.8 -3.5,8.8 0.8,18.7 9.6,22.2 79,31.2 166.4,54.5 267.2,71.2 9.3,1.6 18.1,-4.8 19.7,-14.1 1.5,-9.3 -4.8,-18.1 -14.1,-19.6 -98.5,-16.4 -183.6,-39 -260.3,-69.3 -2,-0.8 -4.1,-1.2 -6.2,-1.2 z m 1326.1,-68.6 c -81.9,36.7 -167.5,67.7 -254.6,92.3 -9,2.6 -14.3,12 -11.8,21.1 2.6,9.1 12.1,14.5 21.1,11.8 88.7,-25.1 175.9,-56.7 259.2,-93.9 8.6,-3.9 12.5,-14 8.6,-22.6 -3.8,-8.7 -14,-12.5 -22.5,-8.7 z m -1725.8,-288.6 c -8.8,3.6 -12.9,13.5 -9.4,22.3 33.9,82.8 90.6,160.8 164,225.6 7.1,6.2 17.9,5.6 24.1,-1.5 6.3,-7.1 5.6,-17.9 -1.5,-24.1 -69.5,-61.3 -123,-135 -154.9,-213 -3.6,-8.7 -13.5,-12.9 -22.3,-9.3 z m 2179.4,-3.2 c -101.3,90.6 -211.8,160.8 -215.5,163.3 -7.9,5.1 -10.3,15.7 -5.1,23.7 5.1,7.9 15.7,10.2 23.6,5.1 5,-3.5 78,-48.5 164.8,-119.6 -28,78 -69.1,154.1 -125.6,232.6 -5.5,7.6 -3.8,18.3 3.9,23.8 7.5,5.5 18.3,3.8 23.8,-3.9 59.2,-82.1 102.1,-162 131.3,-244.2 3.9,-11.2 -4.5,-22.7 -15.9,-22.8 12.7,-10.7 25.3,-21.6 37.5,-32.6 7.1,-6.3 7.7,-17.1 1.4,-24.1 -6.3,-7.1 -17.2,-7.6 -24.2,-1.3 z m 329.1,-424.6 c -38.9,78.6 -87.4,155.3 -144,227.8 -5.8,7.4 -4.5,18.2 2.9,24 7.4,5.8 18.2,4.5 24,-3 58.1,-74.3 107.8,-153 147.7,-233.6 4.2,-8.5 0.7,-18.8 -7.7,-22.9 -8.6,-4.2 -18.8,-0.7 -22.9,7.7 z m -368.9,-49.7 c -8.7,3.7 -12.8,13.7 -9.1,22.4 35.8,85 55.6,172.2 58.9,259.2 1,23.8 35.1,20.5 34.2,-1.3 -3.5,-91.1 -24.2,-182.4 -61.6,-271.2 -3.6,-8.6 -13.5,-12.8 -22.4,-9.1 z m -2070.1,-34.8 c -56.1,84.9 -92.2,171.3 -107.5,256.9 -1.7,9.3 4.5,18.2 13.8,19.8 9.2,1.7 18.2,-4.5 19.8,-13.8 14.5,-80.9 49,-163.1 102.4,-244 5.2,-7.9 3.1,-18.5 -4.8,-23.7 -8,-5.3 -18.6,-3 -23.7,4.8 z m 409.7,-367.1 c -81.2,45.6 -157.1,99.3 -225.8,159.6 -7.1,6.3 -7.8,17.1 -1.6,24.2 6.2,7 17.1,7.7 24.1,1.5 66.9,-58.7 141,-111 220,-155.5 8.3,-4.6 11.2,-15.1 6.6,-23.3 -4.7,-8.3 -15.2,-11 -23.3,-6.5 z m 1299,2.9 c -5,8 -2.6,18.5 5.5,23.5 81.4,50.6 150.8,110.2 204.9,171.9 6.2,7.1 16.9,7.8 24.1,1.6 7.1,-6.2 7.8,-17 1.6,-24.1 -59.4,-67.6 -131.6,-128 -212.6,-178.4 -8,-5 -18.5,-2.6 -23.5,5.5 z m 873.3,-88.1 c -9.2,0 -16.8,7.4 -17.1,16.6 -2.2,90.9 -13.7,180.8 -34.5,267.2 -2.2,9.2 3.5,18.4 12.7,20.6 9.2,2.2 18.4,-3.5 20.6,-12.6 21.2,-88.8 33.1,-181.1 35.4,-274.3 0.3,-9.5 -7.2,-17.3 -16.7,-17.5 z m -1649,-84.4 c -91.4,10.5 -182.2,30.3 -270.1,58.8 -21.4,6.9 -11.2,39.4 10.5,32.5 85.8,-27.8 174.4,-47.1 263.5,-57.4 9.3,-1.1 16.1,-9.5 15,-18.9 -1.1,-9.6 -9.9,-16.2 -18.9,-15 z m 257.8,12 c -0.8,9.4 6.1,17.7 15.5,18.6 90.2,8.2 179.5,26.4 263.8,53.4 21.7,6.8 31.8,-25.7 10.5,-32.5 -85.5,-27.5 -176.6,-46.3 -271.2,-55 -9.3,-0.9 -17.7,6 -18.6,15.5 z m 1288.9,-461.1 c -8.8,3.6 -13.1,13.5 -9.6,22.2 33.2,83.1 58.1,170.3 74.1,259.2 4,22.3 37.6,16.2 33.7,-6 -16.4,-91.3 -42,-180.7 -76.1,-265.9 -3.5,-8.8 -13.5,-12.9 -22.1,-9.5 z m -302,-452 c -6.8,6.5 -7,17.3 -0.5,24.2 62.8,65.5 119.4,136.5 168.2,211.1 5.1,7.9 15.8,10 23.6,4.9 8,-5.2 10.1,-15.8 5,-23.7 -49.9,-76.2 -107.8,-148.9 -172.1,-216 -6.6,-6.8 -17.4,-7 -24.2,-0.5 z m -2793.5,-50.8 c -81.1,42.7 -170.8,80.4 -229,158.8 -5.6,7.6 -4.1,18.3 3.5,23.9 7.5,5.6 18.3,4.1 23.9,-3.5 53.5,-72 142.3,-109.5 217,-148.7 8.4,-4.3 11.8,-14.5 7.6,-23 -4.4,-8.6 -14.8,-11.7 -23,-7.5 z m 499.7,-225.84 c -81.9,31.94 -164.5,66.98 -252.6,107.07 -8.6,3.93 -12.4,14.05 -8.5,22.66 3.9,8.57 14.1,12.41 22.6,8.45 87.6,-39.8 169.6,-74.61 250.9,-106.36 8.8,-3.41 13.2,-13.33 9.7,-22.1 -3.4,-8.93 -13.4,-13.14 -22.1,-9.72 z m 1850.2,-38.46 c -4.1,8.45 -0.6,18.69 7.9,22.82 80.7,39.25 158.7,86 231.6,138.98 7.6,5.51 18.3,3.89 23.8,-3.77 5.6,-7.62 3.9,-18.3 -3.7,-23.85 -74.6,-54.21 -154.2,-102 -236.8,-142.12 -8.4,-4.08 -18.6,-0.67 -22.8,7.94 z m -1325.6,-123.34 c -86.4,18.89 -175.7,42.66 -265.5,70.64 -9.1,2.81 -14.1,12.38 -11.3,21.39 2.8,9.01 12.4,14.01 21.4,11.23 88.9,-27.66 177.3,-51.16 262.7,-69.89 9.3,-2.02 15.1,-11.11 13.1,-20.36 -2,-9.28 -11.3,-15.04 -20.4,-13.01 z m 801.9,-26.24 c -1.4,9.37 5.2,17.98 14.6,19.29 91,12.46 180.1,31.39 264.7,56.16 21.7,6.35 31.3,-26.43 9.6,-32.82 -86.2,-25.24 -177,-44.49 -269.7,-57.23 -9.1,-1.31 -17.9,5.12 -19.2,14.6 z m -530.5,-18.93 c -22.4,2.54 -18.8,36.52 3.8,34.02 84.7,-9.49 174.6,-14.93 271,-14.65 9.4,0 17.1,-7.58 17.1,-17.02 0,-9.41 -7.6,-17.11 -17,-17.15 l -12,-0.04 c -38.8,1.11 -120.8,-1.03 -262.9,14.84" /></g><g
         transform="scale(2.67967)"
         id="g36"><path
           id="path38"
           style="fill:#fcc922;fill-opacity:1;fill-rule:nonzero;stroke:none"
           d="m 14434.7,14608.6 421.7,-55 1443.6,610.5 c -12.6,-0.2 -1865.3,-555.5 -1865.3,-555.5" /></g><g
         transform="scale(2.67967)"
         id="g40"><path
           id="path42"
           style="fill:#ef9300;fill-opacity:1;fill-rule:nonzero;stroke:none"
           d="m 14835.6,14553.4 374.5,-487.7 c 0,0 1078.6,1094.2 1089.9,1098.4 l -1464.4,-610.7" /></g><g
         transform="scale(2.67967)"
         id="g44"><path
           id="path46"
           style="fill:#fcc922;fill-opacity:1;fill-rule:nonzero;stroke:none"
           d="m 15223.5,14514.3 422.9,-87.1 653.6,736.9 -1076.5,-649.8" /></g><g
         transform="scale(2.56198)"
         id="g48"><path
           id="path50"
           style="fill:#ffa903;fill-opacity:1;fill-rule:nonzero;stroke:none"
           d="m 15908.7,14711.9 391.3,391.4 -377.2,77.7 -14.1,-469.1" /></g><g
         transform="scale(2.51998)"
         id="g52"><path
           id="path54"
           style="fill:#452b96;fill-opacity:1;fill-rule:nonzero;stroke:none"
           d="m 8265.66,5562.94 c -443.61,0 -804.45,361.23 -804.45,805.21 v 9127.35 c 0,443.6 360.84,804.5 804.45,804.5 h 4005.44 c 443.6,0 804.4,-360.9 804.4,-804.5 V 6368.15 c 0,-443.98 -360.8,-805.21 -804.4,-805.21 H 8265.66" /></g><g
         transform="scale(2.49063)"
         id="g56"><path
           id="path58"
           style="fill:#8f6dff;fill-opacity:1;fill-rule:nonzero;stroke:none"
           d="m 12992.2,6473.43 c 0,-325.54 -266.3,-591.78 -591.8,-591.78 H 8348.06 c -326.74,0 -591.18,264.47 -591.18,591.18 v 9235.37 c 0,325.6 266.24,591.8 591.74,591.8 h 540.23 c 49.79,0 90.7,-40.9 90.7,-90.7 v -31.5 c 0,-141.6 114.43,-256.1 256.16,-256.1 h 2276.99 c 141.8,0 256.8,115 256.8,256.8 v 30.8 c 0,49.8 40.9,90.7 90.7,90.7 h 540.2 c 325.5,0 591.8,-266.2 591.8,-591.8 V 6473.43" /></g><g
         transform="scale(2.36152)"
         id="g60"><path
           id="path62"
           style="fill:#42298f;fill-opacity:1;fill-rule:nonzero;stroke:none"
           d="m 13708.7,14593.7 h -6.2 V 16300 h 6.2 v -1706.3" /></g><g
         transform="scale(2.36152)"
         id="g64"><path
           id="path66"
           style="fill:#7d5ee3;fill-opacity:1;fill-rule:nonzero;stroke:none"
           d="m 12750.3,14152.1 c -12.7,0 -24.9,9.9 -24.9,24.8 v 1848.7 c 0,151.6 122.9,274.4 274.5,274.4 h 702.6 v -1706.3 h -443.9 c -36.4,0 -71.2,-14.5 -96.9,-40.2 l -394.1,-394.1 c -5,-5 -11.2,-7.3 -17.3,-7.3" /></g><g
         transform="scale(2.48563)"
         id="g68"><path
           id="path70"
           style="fill:#393168;fill-opacity:1;fill-rule:nonzero;stroke:none"
           d="M 11338.7,16112.9 H 9939.95 c -51.09,0 -93.1,42 -93.1,93.7 0,51.7 42.01,93.4 93.1,93.4 h 1398.75 c 51.7,0 93.4,-41.7 93.4,-93.4 0,-51.7 -41.7,-93.7 -93.4,-93.7" /></g><g
         transform="scale(2.48563)"
         id="g72"><path
           id="path74"
           style="fill:#393168;fill-opacity:1;fill-rule:nonzero;stroke:none"
           d="m 9664.85,16112.9 c -51.7,0 -93.7,41.7 -93.7,93.4 0,51.7 42,93.7 93.7,93.7 51.69,0 93.37,-42 93.37,-93.7 0,-51.7 -41.68,-93.4 -93.37,-93.4" /></g><g
         transform="scale(2.48563)"
         id="g76"><path
           id="path78"
           style="fill:#393168;fill-opacity:1;fill-rule:nonzero;stroke:none"
           d="m 9380.65,16112.9 c -51.65,0 -93.37,41.7 -93.37,93.4 0,51.7 41.72,93.7 93.37,93.7 51.7,0 93.7,-42 93.7,-93.7 0,-51.7 -42,-93.4 -93.7,-93.4" /></g><g
         transform="scale(1.99377)"
         id="g80"><path
           id="path82"
           style="fill:#352171;fill-opacity:1;fill-rule:nonzero;stroke:none"
           d="m 16286.8,15894.1 c 13.2,-13.9 -34.4,-79.8 -136.3,-200.1 -143.8,-172.8 -289.2,-345.3 -367.9,-571.9 -43.9,-116.1 -65.2,-239.4 -51.9,-357.6 5.9,-58.8 21.7,-115.8 42.7,-179.6 20.6,-62.9 43.3,-133.4 57.1,-204.8 28.1,-142.5 32.1,-300.9 -29.6,-449.4 -30.4,-72.9 -75,-140.6 -134.4,-196.4 -58.8,-55.7 -136.9,-98.2 -217.8,-115.4 -94.8,-17.8 -174.4,-9.9 -243,-7.3 -69.8,3.5 -135.1,7.5 -195.6,12.9 -120.8,10.4 -222,26.9 -301.4,46.6 -159.4,40 -229.5,87 -223.8,103.6 6.2,19.5 84.7,7.8 239.2,-1 77.5,-4 174.2,-6.5 291.7,-4.9 59.1,1.1 123.2,2.3 192.3,3.6 70.2,1.7 141.7,1.2 203.3,16.8 101,20.2 185.6,104.1 228.6,208.5 43.4,102.9 43.7,227.4 19.6,348.3 -12,61.3 -30.7,119.9 -52.2,185.5 -21.2,64.4 -42.4,138.3 -50,214.2 -16.8,151.3 10.6,301.6 62.1,437.8 64.9,160.4 155.4,280.7 236.8,373.3 82.7,92.7 159,159.9 221.3,211.1 125.4,101.3 196.1,139.9 209.2,126.2" /></g><g
         transform="scale(1.82217)"
         id="g84"><path
           id="path86"
           style="fill:#352171;fill-opacity:1;fill-rule:nonzero;stroke:none"
           d="m 16237.9,15273.4 h -147.5 v -683.6 h 147.5 c 33.9,0 62.1,27.4 62.1,62.2 v 560.1 c 0,33.9 -28.2,61.3 -62.1,61.3" /></g><g
         transform="scale(1.83749)"
         id="g88"><path
           id="path90"
           style="fill:#452b99;fill-opacity:1;fill-rule:nonzero;stroke:none"
           d="m 16259.7,15028.6 h -95.6 v -443 h 95.6 c 22,0 40.3,17.7 40.3,40.3 v 363 c 0,22.1 -18.3,39.7 -40.3,39.7" /></g><g
         transform="scale(1.79766)"
         id="g92"><path
           id="path94"
           style="fill:#c5c6ff;fill-opacity:1;fill-rule:nonzero;stroke:none"
           d="m 16300,15461.3 v -983.5 c 0,-854.2 -618.2,-1562.4 -1433.1,-1701 -20.6,-5.6 -39.3,-7.5 -60,-9.3 -177.4,-26 -362.2,-21.2 -530.1,9.3 -813,138.6 -1431.2,848.6 -1431.2,1701 v 983.5 c 0,301.6 245.4,547 548.9,547 H 15753 c 301.6,0 547,-245.4 547,-547" /></g><g
         transform="scale(1.7985)"
         id="g96"><path
           id="path98"
           style="fill:#452b96;fill-opacity:1;fill-rule:nonzero;stroke:none"
           d="m 16300,15317.3 v -48.6 c -282.7,-58.1 -548.6,-262.1 -734,-565.5 -357,-585.6 -344.2,-1340.9 -698.4,-1932.4 -20.6,-5.6 -39.3,-7.5 -60,-9.3 349.2,524.3 352,1365.1 719.1,1966 194.7,316.5 475.6,530 773.3,589.8" /></g><g
         transform="scale(1.69007)"
         id="g100"><path
           id="path102"
           style="fill:#452b96;fill-opacity:1;fill-rule:nonzero;stroke:none"
           d="m 15259.5,13580.2 c -21.9,1.9 -43.8,6 -65.8,9.9 -373.2,623.4 -364.9,1435.9 -743.2,2056.4 -197.3,322.8 -478.2,540 -779.1,599.7 v 53.8 c 316.8,-63.7 615.7,-290.9 820.9,-627.7 390,-638.3 390.5,-1527.2 767.2,-2092.1" /></g><g
         transform="scale(1.78468)"
         id="g104"><path
           id="path106"
           style="fill:#452b96;fill-opacity:1;fill-rule:nonzero;stroke:none"
           d="m 15336.5,16124.7 h -1300.2 v 175.3 h 1300.2 v -175.3" /></g><g
         transform="scale(2.05731)"
         id="g108"><path
           id="path110"
           style="fill:#c5c6ff;fill-opacity:1;fill-rule:nonzero;stroke:none"
           d="m 14312,15220 c 0,-298.1 -119.5,-568.9 -315.3,-763.2 -194.5,-195.9 -463.8,-316.9 -763.3,-316.9 h -985 c -597.6,0 -1080,483.9 -1080,1080.1 0,7.2 0,13 1.4,20.2 -1.4,17.2 0,33.1 2.9,50.4 15.8,270.7 132.5,514 312.5,692.6 138.3,138.3 313.9,239.1 509.8,285.2 80.6,21.6 165.6,31.6 253.4,31.6 h 985 c 87.9,0 172.8,-10 253.5,-30.2 452.2,-108 793.4,-502.6 822.3,-980.7 1.4,-15.8 2.8,-33.1 1.4,-48.9 1.4,-7.2 1.4,-13 1.4,-20.2" /></g><g
         transform="scale(1.92991)"
         id="g112"><path
           id="path114"
           style="fill:#452b96;fill-opacity:1;fill-rule:nonzero;stroke:none"
           d="m 15253.8,16298.4 c -56.9,-67.5 -130.5,-128.9 -221.1,-184.2 -233.3,-144.3 -545,-224.1 -878.1,-224.1 h -1145.2 c -478.9,0 -894.9,167.3 -1099.1,409.9 -3.1,-18.4 -4.6,-35.3 -3.1,-53.7 221,-236.5 632.5,-394.6 1102.2,-394.6 h 1145.2 c 340.8,0 660.1,81.4 898.1,230.3 81.3,49.1 148.9,104.4 202.6,164.3 1.5,16.8 0,35.3 -1.5,52.1" /></g><g
         transform="scale(2.05731)"
         id="g116"><path
           id="path118"
           style="fill:#452b99;fill-opacity:1;fill-rule:nonzero;stroke:none"
           d="m 13486.9,16269.8 c -69.2,-250.6 -377.3,-439.2 -746,-439.2 -368.6,0 -675.4,188.6 -745.9,437.8 80.6,21.6 165.6,31.6 253.4,31.6 h 985 c 87.9,0 172.8,-10 253.5,-30.2" /></g><g
         transform="scale(2.08069)"
         id="g120"><path
           id="path122"
           style="fill:#352171;fill-opacity:1;fill-rule:nonzero;stroke:none"
           d="m 12881.2,16245.6 v -129.1 h -598.7 v 129.1 c 0,29.7 24,54.4 54.4,54.4 h 490.6 c 29.7,0 53.7,-24.7 53.7,-54.4" /></g><g
         transform="scale(2.09601)"
         id="g124"><path
           id="path126"
           style="fill:#452b99;fill-opacity:1;fill-rule:nonzero;stroke:none"
           d="m 12684.1,16264.7 v -83.8 h -388.4 v 83.8 c 0,19.3 15.5,35.3 35.3,35.3 h 318.2 c 19.4,0 34.9,-16 34.9,-35.3" /></g><g
         transform="scale(2.16528)"
         id="g128"><path
           id="path130"
           style="fill:#452b99;fill-opacity:1;fill-rule:nonzero;stroke:none"
           d="m 12140.6,16300 h -71.3 v -521.5 h 71.3 v 521.5" /></g><g
         transform="scale(2.19999)"
         id="g132"><path
           id="path134"
           style="fill:#ef1b4e;fill-opacity:1;fill-rule:nonzero;stroke:none"
           d="m 12078.4,16135.8 c 0,-89.9 -74.2,-162.9 -164.2,-162.9 -89.9,0 -164.1,73 -164.1,162.9 0,91.2 74.2,164.2 164.1,164.2 45.7,0 88.6,-19.5 118.6,-50.8 28.7,-28.7 45.6,-69.1 45.6,-113.4" /></g><g
         transform="scale(2.19999)"
         id="g136"><path
           id="path138"
           style="fill:#ff2e56;fill-opacity:1;fill-rule:nonzero;stroke:none"
           d="m 12032.8,16249.2 c 0,-90 -74.2,-164.2 -164.1,-164.2 -45.6,0 -88.7,19.5 -118.6,50.8 0,91.2 74.2,164.2 164.1,164.2 45.7,0 88.6,-19.5 118.6,-50.8" /></g><g
         transform="scale(1.70741)"
         id="g140"><path
           id="path142"
           style="fill:#352171;fill-opacity:1;fill-rule:nonzero;stroke:none"
           d="m 13375.2,16300 h 157.4 v -729.5 h -157.4 c -36.2,0 -66.3,29.1 -66.3,66.3 v 597.8 c 0,36.2 30.1,65.4 66.3,65.4" /></g><g
         transform="scale(1.69417)"
         id="g144"><path
           id="path146"
           style="fill:#452b99;fill-opacity:1;fill-rule:nonzero;stroke:none"
           d="m 13309.2,16300 h 103.7 v -480.5 h -103.7 c -23.9,0 -43.7,19.2 -43.7,43.7 v 393.7 c 0,23.9 19.8,43.1 43.7,43.1" /></g><g
         transform="scale(1.69126)"
         id="g148"><path
           id="path150"
           style="fill:#352171;fill-opacity:1;fill-rule:nonzero;stroke:none"
           d="m 11730.5,13844.4 c -10.9,19.4 44.8,72.6 162.9,162.7 116.3,91.6 300.7,216.1 505.4,416.2 176.5,164.3 323.3,360.6 404.3,580.3 82,218.1 88.3,472.2 149.9,733.7 40.1,152.9 104.3,290 192.4,385.6 87.7,96 190.4,146.4 276.2,161.1 85.2,16 156.6,-2 193.5,-29.1 38.1,-27.4 41.9,-53.6 34.3,-60.2 -16.6,-15.9 -75.1,25.2 -194,-28.4 -57.3,-25 -123.3,-73.3 -178.2,-151.2 -55.1,-77.9 -97.1,-187.4 -124.3,-325.8 -57,-231.9 -61.3,-495.3 -156.9,-756.7 -95.5,-258.3 -263,-478.8 -457.1,-659.7 -118.6,-103.3 -231.1,-179.4 -329.8,-238.6 -98.7,-59.3 -184,-101.5 -253.2,-132.5 -138.8,-61.1 -214.3,-77.2 -225.4,-57.4" /></g><g
         transform="scale(1.46741)"
         id="g152"><path
           id="path154"
           style="fill:#e4ecf9;fill-opacity:1;fill-rule:nonzero;stroke:none"
           d="m 13862,16027.9 c 0,-150.3 -121.9,-272.1 -272.1,-272.1 -150.3,0 -272.2,121.8 -272.2,272.1 0,150.3 121.9,272.1 272.2,272.1 150.2,0 272.1,-121.8 272.1,-272.1" /></g><g
         transform="scale(1.46264)"
         id="g156"><path
           id="path158"
           style="fill:#d1dcf8;fill-opacity:1;fill-rule:nonzero;stroke:none"
           d="m 13907,16080.2 c 0,-150.4 -122.5,-272.8 -272.8,-272.8 -138.8,0 -254.5,104.1 -270.9,239 44.3,-33.7 100.3,-53 160,-53 151.4,0 272.8,122.5 272.8,272.8 0,11.6 -1,23.1 -1.9,33.8 68.4,-49.2 112.8,-129.2 112.8,-219.8" /></g><g
         transform="scale(1.57596)"
         id="g160"><path
           id="path162"
           style="fill:#e4ecf9;fill-opacity:1;fill-rule:nonzero;stroke:none"
           d="m 14045.8,16046.6 c 0,-139.9 -113.4,-253.3 -253.4,-253.3 -139.9,0 -253.3,113.4 -253.3,253.3 0,140 113.4,253.4 253.3,253.4 140,0 253.4,-113.4 253.4,-253.4" /></g><g
         transform="scale(1.57118)"
         id="g164"><path
           id="path166"
           style="fill:#d1dcf8;fill-opacity:1;fill-rule:nonzero;stroke:none"
           d="m 14088.3,16095.4 c 0,-140 -114,-254 -254,-254 -129.2,0 -236.8,97 -252.1,222.6 41.3,-31.4 93.3,-49.4 149,-49.4 140.8,0 253.9,114 253.9,254 0,10.8 -0.9,21.5 -1.8,31.4 63.7,-45.8 105,-120.3 105,-204.6" /></g><g
         transform="scale(1.9345)"
         id="g168"><path
           id="path170"
           style="fill:#e4ecf9;fill-opacity:1;fill-rule:nonzero;stroke:none"
           d="m 16300,15370.6 c 0,-114 -92.4,-206.4 -206.4,-206.4 -114,0 -206.4,92.4 -206.4,206.4 0,113.9 92.4,206.3 206.4,206.3 114,0 206.4,-92.4 206.4,-206.3" /></g><g
         transform="scale(1.93448)"
         id="g172"><path
           id="path174"
           style="fill:#d1dcf8;fill-opacity:1;fill-rule:nonzero;stroke:none"
           d="m 16300,15370.7 c 0,-113.7 -92.5,-206.2 -206.3,-206.2 -104.9,0 -192.4,78.6 -204.8,180.7 33.6,-25.5 75.9,-40.1 121,-40.1 114.4,0 206.3,92.5 206.3,206.2 0,8.8 -0.8,17.5 -1.5,25.6 51.8,-37.2 85.3,-97.7 85.3,-166.2" /></g><g
         transform="scale(2.02678)"
         id="g176"><path
           id="path178"
           style="fill:#e4ecf9;fill-opacity:1;fill-rule:nonzero;stroke:none"
           d="m 16300,15635.8 c 0,-108.7 -88.2,-197 -197,-197 -108.8,0 -197,88.3 -197,197 0,108.8 88.2,197.1 197,197.1 108.8,0 197,-88.3 197,-197.1" /></g><g
         transform="scale(2.03592)"
         id="g180"><path
           id="path182"
           style="fill:#d1dcf8;fill-opacity:1;fill-rule:nonzero;stroke:none"
           d="m 16030.7,15369.7 c -99.7,0 -182.8,74.8 -194.6,171.7 125.3,-95.3 326.5,-4.1 309.5,182.1 154.4,-110.9 72.8,-353.8 -114.9,-353.8" /></g><g
         transform="scale(1.66463)"
         id="g184"><path
           id="path186"
           style="fill:#452b99;fill-opacity:1;fill-rule:nonzero;stroke:none"
           d="m 16300,15313.8 v -291.3 c 0,-289.5 -242.5,-523.1 -537.1,-506.6 -253.3,14.6 -448.8,223.4 -473.5,471.7 -5.1,35.3 -2.7,49.3 -3.2,326.2 0,118.7 97.1,215.9 215.8,215.9 h 582.2 c 117.7,0 215.8,-95.5 215.8,-215.9" /></g><g
         transform="scale(1.66463)"
         id="g188"><path
           id="path190"
           style="fill:#352171;fill-opacity:1;fill-rule:nonzero;stroke:none"
           d="m 16300,15313.8 v -291.3 c 0,-289.5 -242.5,-523.1 -537.1,-506.6 -253.3,14.6 -448.8,223.4 -473.5,471.7 386.3,-232.6 898.2,33.7 912.8,506.5 59.1,-38.1 97.8,-104.7 97.8,-180.3" /></g><g
         transform="scale(1.68863)"
         id="g192"><path
           id="path194"
           style="fill:#452b96;fill-opacity:1;fill-rule:nonzero;stroke:none"
           d="m 15212.3,16165.6 c 0,-75.1 -60.9,-135.2 -135.2,-135.2 -74.4,0 -135.3,60.1 -135.3,135.2 0,74.3 60.9,134.4 135.3,134.4 74.3,0 135.2,-60.1 135.2,-134.4" /></g><g
         transform="scale(1.68863)"
         id="g196"><path
           id="path198"
           style="fill:#452b96;fill-opacity:1;fill-rule:nonzero;stroke:none"
           d="m 15649,16165.6 c 0,-75.1 -60.9,-135.2 -135.3,-135.2 -74.3,0 -135.2,60.1 -135.2,135.2 0,74.3 60.9,134.4 135.2,134.4 74.4,0 135.3,-60.1 135.3,-134.4" /></g><g
         transform="scale(1.68863)"
         id="g200"><path
           id="path202"
           style="fill:#452b96;fill-opacity:1;fill-rule:nonzero;stroke:none"
           d="m 16123.2,16165.6 c 0,-75.1 -60.9,-135.2 -135.2,-135.2 -74.4,0 -135.3,60.1 -135.3,135.2 0,74.3 60.9,134.4 135.3,134.4 74.3,0 135.2,-60.1 135.2,-134.4" /></g><g
         transform="scale(1.9402)"
         id="g204"><path
           id="path206"
           style="fill:#393e46;fill-opacity:1;fill-rule:nonzero;stroke:none"
           d="m 13911.4,15897.8 c 0,-222.2 -180,-402.2 -402.2,-402.2 -222.1,0 -402.2,180 -402.2,402.2 0,222.1 180.1,402.2 402.2,402.2 222.2,0 402.2,-180.1 402.2,-402.2" /></g><g
         transform="scale(1.93129)"
         id="g208"><path
           id="path210"
           style="fill:#64d3ff;fill-opacity:1;fill-rule:nonzero;stroke:none"
           d="m 13900.4,15971.1 c 0,-181.6 -147.2,-328.8 -328.9,-328.8 -181.6,0 -328.9,147.2 -328.9,328.8 0,181.6 147.3,328.9 328.9,328.9 181.7,0 328.9,-147.3 328.9,-328.9" /></g><g
         transform="scale(1.91541)"
         id="g212"><path
           id="path214"
           style="fill:#42c1f4;fill-opacity:1;fill-rule:nonzero;stroke:none"
           d="m 13880.5,16103.6 c 0,-108.4 -88,-196.4 -196.4,-196.4 -108.5,0 -196.4,88 -196.4,196.4 0,108.5 87.9,196.4 196.4,196.4 108.4,0 196.4,-87.9 196.4,-196.4" /></g><g
         transform="scale(1.90389)"
         id="g216"><path
           id="path218"
           style="fill:#13b1e2;fill-opacity:1;fill-rule:nonzero;stroke:none"
           d="m 13865.8,16201 c 0,-54.6 -44.3,-99 -98.9,-99 -54.7,0 -99,44.4 -99,99 0,54.7 44.3,99 99,99 54.6,0 98.9,-44.3 98.9,-99" /></g><g
         transform="scale(1.88088)"
         id="g220"><path
           id="path222"
           style="fill:#ffffff;fill-opacity:1;fill-rule:nonzero;stroke:none"
           d="m 14118.8,16254.7 c 0,-25 -20.3,-45.3 -45.3,-45.3 -25.1,0 -45.3,20.3 -45.3,45.3 0,25 20.2,45.3 45.3,45.3 25,0 45.3,-20.3 45.3,-45.3" /></g><g
         transform="scale(1.91938)"
         id="g224"><path
           id="path226"
           style="fill:#a8e6ff;fill-opacity:1;fill-rule:nonzero;stroke:none"
           d="m 13459.8,16067.5 c -27.5,24.4 -44.8,59.9 -44.8,99.5 0,73.4 59.5,133 132.9,133 34.5,0 65.9,-13.1 89.5,-34.6 -99.6,-9.3 -177.6,-93.1 -177.6,-195.2 0,-0.8 0,-1.8 0,-2.7" /></g><g
         transform="scale(1.91531)"
         id="g228"><path
           id="path230"
           style="fill:#95dcf9;fill-opacity:1;fill-rule:nonzero;stroke:none"
           d="m 13576.7,16068.2 c -33.9,0 -64.8,12.7 -88.3,33.5 0,0.9 0,1.8 0,2.7 0,102.3 78.1,186.3 178,195.6 26.8,-24.4 43.6,-59.5 43.6,-98.6 0,-0.6 0,-1.2 0,-1.8 -8.1,2.1 -16.5,3.2 -25.2,3.2 -54.3,0 -98.4,-44 -98.4,-98.4 0,-12.4 2.3,-24.3 6.5,-35.2 -5.3,-0.7 -10.7,-1 -16.2,-1" /></g><g
         transform="scale(1.90389)"
         id="g232"><path
           id="path234"
           style="fill:#7bd3ef;fill-opacity:1;fill-rule:nonzero;stroke:none"
           d="m 13674.4,16165.5 c -4.2,11.1 -6.5,23 -6.5,35.5 0,54.7 44.3,99 99,99 8.7,0 17.2,-1.2 25.3,-3.3 -1,-67.7 -52,-123.2 -117.8,-131.2" /></g><g
         transform="scale(1.79062)"
         id="g236"><path
           id="path238"
           style="fill:#c5c6ff;fill-opacity:1;fill-rule:nonzero;stroke:none"
           d="m 16297,12592.2 c -4,-31.5 -29.5,-54.9 -53.7,-75.6 -82.1,-70.2 -163.8,-140.7 -245.9,-210.9 l -310.9,-34.7 c -85.5,157.4 -157.1,322.5 -213.3,492.5 -15.9,47.3 -30.6,97.1 -23.4,146.6 12.4,87.1 87.4,150.1 157.1,203.9 55.4,43 111.9,86.6 177.8,110.5 65.9,24.2 143.9,25.8 202.5,-12.4 53.8,-34.7 83.1,-95.7 109.7,-153.8 61.1,-132.3 121.9,-264.7 182.9,-397 10,-22 20.2,-45.2 17.2,-69.1" /></g><g
         transform="scale(1.7729)"
         id="g240"><path
           id="path242"
           style="fill:#352171;fill-opacity:1;fill-rule:nonzero;stroke:none"
           d="m 16277.2,13416.2 c -14.1,-59.7 -58.4,-107.3 -101.6,-150.8 -101.6,-101.9 -208.7,-198 -320.6,-288.4 -80.7,-65.2 -164.6,-127.7 -258.9,-170.9 -253.7,-115.6 -470.8,-32 -547.3,123.8 l 1082.5,700.6 c 96.4,-13.6 168.7,-119.8 145.9,-214.3" /></g><g
         transform="scale(1.78254)"
         id="g244"><path
           id="path246"
           style="fill:#352171;fill-opacity:1;fill-rule:nonzero;stroke:none"
           d="m 16268.9,10007.3 c -13,-113.72 -46.6,-139.58 -147.7,-150.75 l -262.6,-29.22 c 35.3,278.27 47,559.57 35.1,840.07 l 338.8,183.9 c 55,-277.2 67.5,-563 36.4,-844" /></g><g
         transform="scale(1.80551)"
         id="g248"><path
           id="path250"
           style="fill:#c5c6ff;fill-opacity:1;fill-rule:nonzero;stroke:none"
           d="m 16221.6,10767.4 c -78.5,-363.2 -284.9,-320.3 -405.7,-334.7 -120.6,-14.1 -249.4,106.9 -342,228.1 -53.6,70.1 -100.1,580 -129.7,996.6 -24,338.8 146.3,661.7 439.2,833.8 l 302.9,177.9 c 0,0 213.7,-1538.3 135.3,-1901.7" /></g><g
         transform="scale(1.81853)"
         id="g252"><path
           id="path254"
           style="fill:#352171;fill-opacity:1;fill-rule:nonzero;stroke:none"
           d="m 16260.8,11200.7 c 0,0 -57.2,-553.8 -157.3,-536 -100.1,18 -493.1,385.8 -536,485.9 -42.7,100.2 -103.6,1207.7 -103.6,1207.7 0,0 496.6,546.6 603.8,439.4 107.3,-107 232.3,-628.8 193.1,-1597" /></g><g
         transform="scale(1.81517)"
         id="g256"><path
           id="path258"
           style="fill:#c5c6ff;fill-opacity:1;fill-rule:nonzero;stroke:none"
           d="m 15397,8087.83 h 837.9 c 40.8,137.45 65.1,245.59 63.2,297.27 -8.7,246.76 0,1383.89 -114.6,1436.73 -114.3,52.77 -650,128.14 -678.4,0 0,0 -135,-493.51 -116,-1295.59 3.4,-142.85 5.6,-290.99 7.9,-438.41" /></g><g
         transform="scale(1.78766)"
         id="g260"><path
           id="path262"
           style="fill:#352171;fill-opacity:1;fill-rule:nonzero;stroke:none"
           d="m 16300,10290.2 c 0,-86.8 -121.5,-157.2 -271.4,-157.2 -149.9,0 -271.4,70.4 -271.4,157.2 0,86.8 121.5,157.2 271.4,157.2 149.9,0 271.4,-70.4 271.4,-157.2" /></g><g
         transform="scale(1.84612)"
         id="g264"><path
           id="path266"
           style="fill:#352171;fill-opacity:1;fill-rule:nonzero;stroke:none"
           d="m 15292.4,8560.97 c 143,-62.08 261.2,-68.36 261.2,-68.36 0,0 0,-309.03 -26.9,-540.38 h 483.9 c 107,336.76 289.4,1101.34 114.5,1615.44 0,0 -160,276.64 -688,158.5 l -21.9,-56.28 c 0,0 -265.4,-1046.57 -122.8,-1108.92" /></g><g
         transform="scale(1.52087)"
         id="g268"><path
           id="path270"
           style="fill:#c5c6ff;fill-opacity:1;fill-rule:nonzero;stroke:none"
           d="m 15337.3,14736.6 c 96.6,-82.6 192.8,-165.6 289.4,-248.3 l 366.1,-40.9 c 100.7,185.3 184.9,379.8 251.1,579.9 56.1,167.4 47.1,254.7 -157.4,412.6 -65.2,50.7 -131.7,102 -209.3,130.1 -77.6,28.6 -169.4,30.5 -238.5,-14.5 -63.3,-40.8 -97.8,-112.8 -129.2,-181.2 -71.8,-155.7 -143.4,-311.6 -215.3,-467.3 -33.2,-73.7 -32,-106.1 43.1,-170.4" /></g><g
         transform="scale(1.57863)"
         id="g272"><path
           id="path274"
           style="fill:#352171;fill-opacity:1;fill-rule:nonzero;stroke:none"
           d="m 14920.4,15067.2 c 15.9,-67.1 65.6,-120.5 114.1,-169.4 156.8,-157.1 449.7,-423.7 650.7,-515.9 285,-129.7 528.8,-35.9 614.8,139.2 l -1215.8,786.8 c -108.3,-15.3 -189.4,-134.6 -163.8,-240.7" /></g><g
         transform="scale(1.48117)"
         id="g276"><path
           id="path278"
           style="fill:#352171;fill-opacity:1;fill-rule:nonzero;stroke:none"
           d="m 15806.1,12043.4 c 15.7,-136.8 56.1,-167.9 177.9,-181.4 l 316,-35.1 c -42.6,334.9 -56.6,673.4 -42.3,1010.9 l -407.7,221.4 c -66.3,-333.6 -81.3,-677.6 -43.9,-1015.8" /></g><g
         transform="scale(1.51846)"
         id="g280"><path
           id="path282"
           style="fill:#c5c6ff;fill-opacity:1;fill-rule:nonzero;stroke:none"
           d="m 15228.1,12802.9 c 93.3,-431.9 338.8,-380.9 482.4,-398 143.4,-16.8 296.6,127.1 406.7,271.2 63.7,83.3 119,689.6 154.2,1185 28.6,402.8 -174,786.8 -522.2,991.4 l -360.3,211.5 c 0,0 -254,-1829.1 -160.8,-2261.1" /></g><g
         transform="scale(1.49018)"
         id="g284"><path
           id="path286"
           style="fill:#352171;fill-opacity:1;fill-rule:nonzero;stroke:none"
           d="m 15327.5,13668.6 c 0,0 69.8,-675.8 192,-654.1 122.1,21.9 601.7,470.9 654.1,593 52,122.2 126.4,1473.8 126.4,1473.8 0,0 -606,667 -736.9,536.2 -130.8,-130.6 -283.4,-767.3 -235.6,-1948.9" /></g><g
         transform="scale(1.50382)"
         id="g288"><path
           id="path290"
           style="fill:#c5c6ff;fill-opacity:1;fill-rule:nonzero;stroke:none"
           d="m 16267.4,9762.33 c 2.8,177.94 5.5,356.77 9.5,529.17 23.1,968.1 -140,1563.8 -140,1563.8 -34.2,154.7 -680.8,63.7 -818.8,0 -138.4,-63.7 -127.8,-1436.3 -138.4,-1734.2 -2.2,-62.3 27.2,-192.86 76.3,-358.77 h 1011.4" /></g><g
         transform="scale(1.48731)"
         id="g292"><path
           id="path294"
           style="fill:#352171;fill-opacity:1;fill-rule:nonzero;stroke:none"
           d="m 15647.5,12368.2 c 0,-104.4 146.1,-188.9 326.3,-188.9 180.1,0 326.2,84.5 326.2,188.9 0,104.3 -146.1,189 -326.2,189 -180.2,0 -326.3,-84.7 -326.3,-189" /></g><g
         transform="scale(1.49958)"
         id="g296"><path
           id="path298"
           style="fill:#352171;fill-opacity:1;fill-rule:nonzero;stroke:none"
           d="m 15836,9789.92 c -33.1,284.78 -33.1,665.28 -33.1,665.28 0,0 145.5,7.7 321.4,84.1 175.7,76.8 -151.1,1365.2 -151.1,1365.2 l -27,69.3 c -650,145.4 -847,-195.1 -847,-195.1 -215.2,-632.9 9.3,-1574.2 141,-1988.78 h 595.8" /></g><g
         transform="scale(2.38015)"
         id="g300"><path
           id="path302"
           style="fill:#fcc922;fill-opacity:1;fill-rule:nonzero;stroke:none"
           d="m 12755.8,16300 h 1963.8 c 150.4,0 272.3,-121.9 272.3,-272.3 v -1148.4 c 0,-150.4 -121.9,-272.3 -272.3,-272.3 h -1707.2 c -36,0 -70.5,-14.3 -96,-39.8 l -391.1,-391 c -15.4,-15.5 -41.8,-4.6 -41.8,17.3 v 1834.2 c 0,150.4 121.9,272.3 272.3,272.3" /></g><g
         transform="scale(2.30928)"
         id="g304"><path
           id="path306"
           style="fill:#ffffff;fill-opacity:1;fill-rule:nonzero;stroke:none"
           d="m 14222.1,16262 c 0,-20.7 17,-37.7 37.6,-37.7 h 929.9 c 21.1,0 37.6,17 37.6,37.7 0,21.1 -16.5,38 -37.6,38 h -929.9 c -20.6,0 -37.6,-16.9 -37.6,-38" /></g><g
         transform="scale(2.26585)"
         id="g308"><path
           id="path310"
           style="fill:#ffffff;fill-opacity:1;fill-rule:nonzero;stroke:none"
           d="m 14494.7,16261.2 c 0,-21 17.3,-38.3 38.4,-38.3 h 947.6 c 21.5,0 38.3,17.3 38.3,38.3 0,21.5 -16.8,38.8 -38.3,38.8 h -947.6 c -21.1,0 -38.4,-17.3 -38.4,-38.8" /></g><g
         transform="scale(2.22242)"
         id="g312"><path
           id="path314"
           style="fill:#ffffff;fill-opacity:1;fill-rule:nonzero;stroke:none"
           d="m 15243.4,16260.4 c 0,-21.4 17.6,-39.1 39.1,-39.1 h 500.7 c 21.9,0 39.1,17.7 39.1,39.1 0,22 -17.2,39.6 -39.1,39.6 h -500.7 c -21.5,0 -39.1,-17.6 -39.1,-39.6" /></g><g
         transform="scale(2.32683)"
         id="g316"><path
           id="path318"
           style="fill:#ffffff;fill-opacity:1;fill-rule:nonzero;stroke:none"
           d="m 13519.2,16286.1 26.4,-469.9 469.3,30.5 c 0,3.5 0,7 -0.7,10.5 -22.3,251.6 -242.7,442.8 -495,428.9" /></g><g
         transform="scale(2.31105)"
         id="g320"><path
           id="path322"
           style="fill:#ff2e56;fill-opacity:1;fill-rule:nonzero;stroke:none"
           d="m 13577.9,15852 -27.9,448 c -235,-14.6 -420.9,-212.4 -420.9,-448 0,-246.3 202.5,-448.7 448.8,-448.7 246.9,0 449.4,202.4 449.4,448.7 0,7.9 0,15.3 -0.7,23.2 l -448.7,-23.2" /></g><path
         id="path324"
         style="fill:#100a48;fill-opacity:1;fill-rule:nonzero;stroke:none"
         d="M 9904.62,10068.7 V 8937.8 c 0,-69.2 55.6,-124.8 124.78,-124.8 h 2674.1 c 70.5,0 127.5,58.3 124.8,128.8 -4.1,101.7 -15,359.4 -50.2,387.9 -566.8,458.3 -1105.2,321.4 -1177.1,537 -71.8,215.6 -100.3,455.6 -100.3,455.6 0,0 -1501.15,21.7 -1596.08,-253.6" /><path
         id="path326"
         style="fill:#1f143f;fill-opacity:1;fill-rule:nonzero;stroke:none"
         d="M 5708.25,10068.7 V 8937.8 c 0,-69.2 55.59,-124.8 124.75,-124.8 h 2674.13 c 70.51,0 127.47,58.3 124.76,128.8 -4.07,101.7 -14.92,359.4 -50.18,387.9 -566.82,458.3 -1105.18,321.4 -1177.05,537 -71.87,215.6 -100.34,455.6 -100.34,455.6 0,0 -1501.15,21.7 -1596.07,-253.6" /><g
         transform="scale(1.46185)"
         id="g328"><path
           id="path330"
           style="fill:#373352;fill-opacity:1;fill-rule:nonzero;stroke:none"
           d="m 8727.59,11547.9 c -6.09,-927.1 -234.57,-4427.11 -337.18,-4542.99 -169.1,-190.24 -792.35,-193.53 -1294.18,-134.22 -194.07,22.72 -370.41,54.93 -495.18,89.27 -118.65,32.7 -190.74,66.56 -187.96,96.53 0,0 241.2,3294.21 200.72,4188.71 -22.18,489.1 -158.58,2234.1 -186.3,2587.2 -1.67,18.4 -2.78,32.3 -3.33,42.8 -1.11,13.3 -1.67,19.9 -1.67,19.9 0,0 -301.65,-2340 -426.41,-3116.8 C 5840.84,9804.59 5490.95,6894.02 5401.68,6818.02 5246.97,6687.7 4400.8,6646.73 3889,6770.34 c -61.55,14.98 -117.56,32.15 -167.47,52.13 -90.93,36.05 -160.24,80.38 -196.84,133.05 -85.39,123.13 344.35,2886.76 392.03,3963.08 61.05,1371.7 193.21,3412.2 575.58,4725.4 72.64,249.5 154.15,471.9 246.19,656 l 3645.84,-250.6 c 94.33,-936.3 350.17,-3488.4 343.26,-4501.5" /></g><g
         transform="scale(1.40301)"
         id="g332"><path
           id="path334"
           style="fill:#262040;fill-opacity:1;fill-rule:nonzero;stroke:none"
           d="M 8813.32,15954.5 C 7560.8,15375.1 6321.31,15381.8 5020.21,15431.5 4901.2,13784.3 4245.05,8840.69 3877.59,7108.56 c -94.74,37.56 -166.96,83.75 -205.09,138.63 -88.97,128.3 358.78,3007.81 408.47,4129.21 63.61,1429.3 201.3,3555.3 599.71,4923.6 l 4102.64,-46.2 c 4.91,-41 8.62,-88.7 30,-299.3" /></g><g
         transform="scale(1.81936)"
         id="g336"><path
           id="path338"
           style="fill:#ff2e56;fill-opacity:1;fill-rule:nonzero;stroke:none"
           d="m 9253.17,13430 -185.62,-433.3 c -4.78,1 -1502.62,-1.6 -1952.83,415.5 -455.33,420.1 -827.33,1000.5 -830.9,1005.3 l 730.75,1882.5 c 0,0 444.94,-837.4 762.8,-1659.2 318.35,-821.8 1475.8,-1210.8 1475.8,-1210.8" /></g><g
         transform="scale(1.74728)"
         id="g340"><path
           id="path342"
           style="fill:#ab1447;fill-opacity:1;fill-rule:nonzero;stroke:none"
           d="m 7643.01,13816.9 c -93,42.4 -173.41,91.6 -234.82,148.6 -239.28,220.8 -459.69,488.5 -618.16,697.6 -104.79,561.7 139.99,1176.8 606.89,1508.6 l 78.58,128.3 c 124.76,-816.4 -305.91,-1747.2 167.51,-2483.1" /></g><g
         transform="scale(1.90272)"
         id="g344"><path
           id="path346"
           style="fill:#ff2e56;fill-opacity:1;fill-rule:nonzero;stroke:none"
           d="m 6579.59,13311.7 c -135.49,-649 -69.17,-1262.9 -91.24,-1301.6 -37.42,-67.7 -1465.89,-201.2 -2349.94,-217.2 -347.66,-6.7 -611.19,5.3 -673.07,46.3 -167.1,111.7 -15.74,2061.8 345.89,3283.9 92.71,313.4 261.08,546.2 356.21,739.5 60,121.8 169.05,214.1 300.01,250.1 680.52,187.3 2014.49,-99 2272.86,-593.1 244.8,-466.9 22.7,-1329.2 -160.72,-2207.9" /></g><g
         transform="scale(1.3991)"
         id="g348"><path
           id="path350"
           style="fill:#691a44;fill-opacity:1;fill-rule:nonzero;stroke:none"
           d="m 5396.98,16035.4 c -355.99,0 -614.47,19.2 -684.27,65.3 -0.11,0.1 -0.22,0.2 -0.32,0.2 0.11,0 0.2,-0.1 0.32,-0.2 69.8,-46.1 328.28,-65.3 684.27,-65.3 73.16,0 150.47,0.9 231.06,2.4 1070.12,19.4 2726.8,165.4 3113.98,262.2 v 0 c -387.18,-96.8 -2043.86,-242.8 -3113.98,-262.2 -80.59,-1.5 -157.9,-2.4 -231.06,-2.4 m -684.74,65.7 c -0.05,0 -0.11,0.1 -0.17,0.1 0.05,0 0.12,-0.1 0.17,-0.1 m -0.35,0.2 c -0.05,0.1 -0.09,0.1 -0.13,0.1 0.04,0 0.09,0 0.13,-0.1 m -0.34,0.3 c -0.04,0 -0.07,0 -0.11,0.1 0.03,-0.1 0.08,-0.1 0.11,-0.1 m -0.34,0.2 c -0.02,0 -0.05,0 -0.07,0.1 0.02,-0.1 0.05,-0.1 0.07,-0.1 m -0.33,0.2 c -0.01,0 -0.03,0.1 -0.05,0.1 0.02,0 0.04,0 0.05,-0.1 m -0.32,0.3 h -0.02 0.02" /></g><g
         transform="scale(1.40423)"
         id="g352"><path
           id="path354"
           style="fill:#cc7fa3;fill-opacity:1;fill-rule:nonzero;stroke:none"
           d="m 8791.74,16273.8 c 2.28,4.2 3.85,13 4.92,26.2 -1,-13 -2.5,-21.7 -4.92,-26.2" /></g><g
         transform="scale(1.51045)"
         id="g356"><path
           id="path358"
           style="fill:#d5214e;fill-opacity:1;fill-rule:nonzero;stroke:none"
           d="m 4999.12,14853.3 c -329.75,0 -569.17,17.7 -633.83,60.5 -0.11,0.1 -0.19,0.1 -0.3,0.2 -0.04,0.1 -0.08,0.1 -0.13,0.1 -0.05,0 -0.11,0.1 -0.16,0.2 -0.05,0 -0.12,0 -0.17,0 -0.03,0.1 -0.08,0.1 -0.12,0.2 -0.07,0 -0.13,0 -0.19,0.1 -0.03,0 -0.08,0 -0.1,0.1 -0.07,0 -0.14,0 -0.21,0.1 -0.03,0 -0.05,0 -0.07,0.1 -0.09,0 -0.16,0 -0.24,0.1 -0.01,0.1 -0.03,0.1 -0.05,0.1 -0.08,0 -0.17,0.1 -0.25,0.1 h -0.02 c -96.27,72.1 -106.9,641.3 -43.96,1384.8 248.33,-264.5 581.46,-432.3 917.38,-570.3 859.64,-353.3 1788.54,-535.7 2717.6,-535.7 75.14,0 150.08,1.2 225.23,3.5 -0.27,-18 -0.67,-32.6 -1.53,-43.8 -0.99,-12.3 -2.45,-20.5 -4.56,-24.4 -0.07,-0.1 -0.07,-0.1 -0.07,-0.1 v 0 c -5.23,-9.4 -31.58,-19.8 -75.81,-30.8 -358.63,-89.7 -1893.18,-224.9 -2884.41,-242.9 -74.66,-1.4 -146.26,-2.2 -214.03,-2.2" /></g><g
         transform="scale(1.81896)"
         id="g360"><path
           id="path362"
           style="fill:#d5214e;fill-opacity:1;fill-rule:nonzero;stroke:none"
           d="m 6346.64,13137.7 c -100.22,0 -457.41,126.4 -1077.03,401.4 l -694.82,333.9 c 6.49,15.1 322.56,653.2 553.3,1333.9 133.64,359.2 212.55,632.6 240.25,812.6 33.15,181.8 -3.16,258.5 21.42,278.5 1.86,1.3 4.05,2 6.59,2 4.96,0 11.26,-2.5 19.11,-8 11.42,-8.3 29.04,-23.1 41.66,-47.1 30.76,-47.3 54.21,-127.5 60.36,-231 14.19,-208.5 -36.05,-508.5 -152.01,-887.2 -72.57,-214 -153.1,-424.1 -238.64,-631.7 -102.63,-249.4 -194.32,-447.4 -219.27,-504 l 470.56,-226.1 c 775.66,-400.3 1102.83,-627.2 968.52,-627.2" /></g><g
         transform="scale(1.46594)"
         id="g364"><path
           id="path366"
           style="fill:#2c2a47;fill-opacity:1;fill-rule:nonzero;stroke:none"
           d="m 7282.61,16126.9 h 4217.29 c 24.9,0 45,20.2 45,45.1 v 83 c 0,24.9 -20.1,45 -45,45 H 7282.61 c -24.9,0 -45.09,-20.1 -45.09,-45 v -83 c 0,-24.9 20.19,-45.1 45.09,-45.1" /></g><g
         transform="scale(1.67729)"
         id="g368"><path
           id="path370"
           style="fill:#373352;fill-opacity:1;fill-rule:nonzero;stroke:none"
           d="m 7267.18,14245.9 h 2794.32 l 115.5,438.5 382.3,1454.3 c 21.5,81.2 -27.8,147 -109.1,147 -2633.39,-5.7 -2504.31,14.3 -2570.13,-16 -54.31,-23.7 -99.98,-73.5 -115.07,-131 l -497.82,-1892.8" /></g><g
         transform="scale(1.59315)"
         id="g372"><path
           id="path374"
           style="fill:#2c2a47;fill-opacity:1;fill-rule:nonzero;stroke:none"
           d="m 9269.92,16106.4 c -40.49,-122.3 10.17,-249 113.23,-283.1 103.01,-34.2 219.38,37.2 259.86,159.4 40.49,122.3 -10.16,249 -113.23,283.2 -103,34.1 -219.38,-37.3 -259.86,-159.5" /></g><g
         transform="scale(1.48693)"
         id="g376"><path
           id="path378"
           style="fill:#ffadaf;fill-opacity:1;fill-rule:nonzero;stroke:none"
           d="m 8284.44,15994.2 c 0,0 493.63,78.3 460.81,-368.6 -32.41,-447.3 -937.63,-210 -954.38,-199.5 l 7.13,541.4 c 0,0 541.11,332.5 643.07,315.8 102.63,-17.6 -156.63,-289.1 -156.63,-289.1" /></g><g
         transform="scale(1.88142)"
         id="g380"><path
           id="path382"
           style="fill:#ff2e56;fill-opacity:1;fill-rule:nonzero;stroke:none"
           d="m 4658.13,16236.4 c -172.11,63.6 -365.15,-9.4 -460.5,-166.2 -366.88,-603 -1402.15,-2472.3 -687.7,-3298 590.93,-682.9 2724.52,-707.2 2724.52,-707.2 108.27,7.7 35.45,654.1 -72.82,646.4 l -1577.36,757.9 c 0,0 903.77,1882.7 625.52,2287 -199.13,289.3 -394.67,422.1 -551.66,480.1" /></g><g
         transform="scale(1.94671)"
         id="g384"><path
           id="path386"
           style="fill:#ffadaf;fill-opacity:1;fill-rule:nonzero;stroke:none"
           d="m 5725.96,15645.3 c 0,0 -20.75,-205.9 -158.47,-175.9 -138.49,30.4 -314.94,348.2 -314.94,348.2 0,0 17.05,85.4 36.73,185.2 27.58,135.9 60,297.2 64.31,296.5 12.74,-4.7 447.73,-290.8 447.73,-290.8 l -49.21,-238.6 -26.15,-124.6" /></g><g
         transform="scale(1.94671)"
         id="g388"><path
           id="path390"
           style="fill:#ff9396;fill-opacity:1;fill-rule:nonzero;stroke:none"
           d="m 5752.11,15769.9 c -8.99,-2.1 -18.24,-5.1 -27.69,-6.1 -185.95,-29.2 -348.74,131.7 -435.14,239 27.58,135.9 60,297.2 64.31,296.5 12.74,-4.7 447.73,-290.8 447.73,-290.8 l -49.21,-238.6" /></g><g
         transform="scale(2.01173)"
         id="g392"><path
           id="path394"
           style="fill:#ffadaf;fill-opacity:1;fill-rule:nonzero;stroke:none"
           d="m 5089.65,15638.2 c 0,0 300.04,-387.2 566.03,-346.1 266.04,41 355.32,697.8 216.83,835.6 -173.14,172.3 -466.96,137.2 -466.96,137.2 l -143.36,-99.1 -172.54,-527.6" /></g><g
         transform="scale(2.03596)"
         id="g396"><path
           id="path398"
           style="fill:#262040;fill-opacity:1;fill-rule:nonzero;stroke:none"
           d="m 5058.2,15304.6 c 0,0 93.47,75.6 97.25,162.1 3.83,86.5 -53.79,218.5 -7.42,259.2 46.42,40.8 105.6,-30 106.68,-10 1.13,19.9 -18.17,131.9 14.15,138.7 32.27,6.9 690.14,-273.7 764.94,-23.6 71.42,238.8 -9.77,446 -205.89,457.5 -196.18,11.5 -587.44,-163.5 -587.44,-163.5 0,0 -224.07,172 -336.97,-133.6 -58.3,-157.6 52.58,-586 154.7,-686.8" /></g><g
         transform="scale(1.60281)"
         id="g400"><path
           id="path402"
           style="fill:#ffadaf;fill-opacity:1;fill-rule:nonzero;stroke:none"
           d="m 10921.3,15908.8 c -53.7,-183 -156.3,-313.9 -229,-292.5 -72.8,21.3 -217.7,232.2 -164,415 53.7,183 285.6,268.7 358.5,247.3 72.7,-21.4 88.2,-187 34.5,-369.8" /></g><g
         transform="scale(2.4091)"
         id="g404"><path
           id="path406"
           style="fill:#c5c5f9;fill-opacity:1;fill-rule:nonzero;stroke:none"
           d="m 16300,7837.62 c 0,-614.13 -105.2,-1111.95 -235.1,-1111.95 -129.8,0 -235.1,497.82 -235.1,1111.95 0,614.09 105.3,1111.91 235.1,1111.91 129.9,0 235.1,-497.82 235.1,-1111.91" /></g><g
         transform="scale(2.60834)"
         id="g408"><path
           id="path410"
           style="fill:#c5c5f9;fill-opacity:1;fill-rule:nonzero;stroke:none"
           d="m 15004.4,6954.49 c 311,463.09 302.2,425.64 607.1,653.86 161.7,121 289.5,212.4 505.3,271.59 48.9,13.42 109.3,20.67 143.2,-17.06 19.4,-21.47 24.2,-52.1 26.5,-80.93 13.5,-174.78 -55.1,-211.55 -86.6,-322.23 -23.8,-83.16 -10.5,-221.83 -66.4,-244.41 -37.2,-14.99 -70.8,29.79 -79.3,68.89 -1.6,7.44 -3.4,15.8 -9.9,19.86 -15.7,9.89 -29.6,-15.56 -30.2,-34.12 -1,-37.92 2.9,-76.52 -5.9,-113.44 -8.9,-36.88 -34.5,-73.23 -71.9,-80.09 -38.5,-7.1 -70,13.68 -191.7,72.27 -58.8,28.33 -29.6,-50.11 -47.4,-140.71 -7.9,-40.67 -29.5,-81.96 -67.3,-98.91 -44.5,-19.9 -95.5,-1.11 -143.5,7.51 -115.8,20.78 -241.2,-25.26 -316.1,-116.05 -27.8,-33.66 -49.4,-73.26 -84.1,-99.75 -46.8,-35.85 -147.6,-54.25 -172.8,15.91 -27.1,75.64 52.3,180.07 91,237.81" /></g><g
         transform="scale(2.36363)"
         id="g412"><path
           id="path414"
           style="fill:#c5c5f9;fill-opacity:1;fill-rule:nonzero;stroke:none"
           d="m 14940.9,7802.36 c 47.1,-36.05 94.9,-72.52 149.8,-95.11 54.9,-22.59 118.6,-30.04 173.3,-7.15 10.2,4.27 21,9.69 31.8,7.19 20.3,-4.69 24.4,-31.39 24.2,-52.21 -0.5,-40.91 -0.9,-81.78 -1.4,-122.69 37.8,-2.28 66.7,30.93 96.2,54.66 29.6,23.74 81.1,35.5 99.5,2.33 15.9,-28.68 -8.5,-68.12 8.5,-96.16 15.8,-26.19 64.8,-15.58 68.4,14.8 32.8,-14.59 45.8,-53.14 58.4,-86.73 12.7,-33.59 34.7,-70.74 70.5,-73.19 -6,22.72 -8.9,53.14 12.1,63.67 43.4,21.83 90,-74.71 530.1,-322.05 37.7,136.7 -4.4,286.05 -83.3,403.88 -78.8,117.87 -191.1,209 -305.6,292.68 -404.6,295.9 -600.2,312.91 -948.8,308.17 -29.6,-0.38 -59.8,-0.93 -87.9,-10.37 -54.2,-18.14 -133.4,-78.09 -92.6,-131.19 44.8,-58.22 138.1,-105.6 196.8,-150.53" /></g><g
         transform="scale(2.39694)"
         id="g416"><path
           id="path418"
           style="fill:#d7d4ff;fill-opacity:1;fill-rule:nonzero;stroke:none"
           d="m 15361,9043.26 c -9.7,-55.19 -19.5,-111.6 -11,-166.96 8.4,-55.4 38.4,-110.64 89,-134.67 19.4,-9.18 44.3,-17.02 48.7,-38.01 6.2,-29.66 -36.3,-54.61 -27.6,-83.65 3.2,-10.55 12.4,-17.85 20,-25.86 40.8,-43.06 35.4,-110.6 29.5,-169.64 -23.6,-233.5 -13.5,-473.64 61.6,-696.01 75.1,-222.32 219.6,-426.16 422.3,-544.57 63.7,-37.21 136.2,-66.33 209.5,-58.4 43.8,4.71 53.5,22.69 58,53.86 39,267.71 -83.2,531.22 -218.8,765.31 -102.4,176.68 -107.4,204.46 -122.6,367.51 -28.5,305.47 -101,606.77 -214.6,891.76 -36.1,90.74 -88.4,226.62 -179.4,277.47 -34.6,19.36 -35,16.02 -57.4,-19.19 -61.9,-97.58 -82.7,-279.48 -107.2,-418.95" /></g><g
         transform="scale(2.66877)"
         id="g420"><path
           id="path422"
           style="fill:#d7d4ff;fill-opacity:1;fill-rule:nonzero;stroke:none"
           d="m 16298.8,8328.38 c 1.2,-128.6 -7.5,-277.13 -112.4,-352.04 -29.9,-19.97 -73.6,-29.97 -98.6,-4.98 -32.5,34.92 -17.5,114.85 -64.9,116.08 -38.7,1.24 -41.2,-56.16 -62.5,-88.61 -48.6,-78.69 -193.5,-2.51 -257.1,-69.92 -31.2,-32.45 -26.2,-83.64 -30,-129.84 -2.5,-44.96 -28.7,-99.9 -73.6,-97.39 -18.8,1.24 -36.2,11.25 -55,7.5 -29.9,-6.26 -38.7,-44.93 -39.9,-76.14 -3.7,-64.9 -16.2,-146.06 -78.6,-164.8 -69,-22.97 -127.4,51.64 -249.7,-129.83 -247.2,-369.5 -392,-796.48 -534.3,-1217.15 l -67.5,98.62 c -12.2,579.03 -19.9,1206.02 300.9,1715.28 98.7,154.79 224.7,290.85 355.8,419.41 245.3,242.17 364.9,291.48 644.2,370.81 114.8,33.69 230.9,67.37 350.7,77.38 17.5,1.23 36.3,2.51 50,-8.74 17.5,-12.47 18.7,-37.43 18.7,-59.91 1.3,-134.86 2.5,-269.64 3.8,-405.73" /></g><g
         transform="scale(2.481)"
         id="g424"><path
           id="path426"
           style="fill:#7449fe;fill-opacity:1;fill-rule:nonzero;stroke:none"
           d="m 15977.1,5702.02 c 322.9,388.91 63,1333.49 63,1333.49 -56.7,35.87 -159.8,50.95 -279.1,53.24 -284.9,8.11 -655.6,-53.24 -655.6,-53.24 0,0 -269.5,-948.37 81.6,-1333.49 h 790.1" /></g><g
         transform="scale(2.48314)"
         id="g428"><path
           id="path430"
           style="fill:#5934f4;fill-opacity:1;fill-rule:nonzero;stroke:none"
           d="m 15977.3,5706.44 c 322.7,388.58 63,1332.35 63,1332.35 -56.7,35.88 -166.7,41.88 -285.9,44.17 -35.8,-146.95 -23.1,-292.97 -13.8,-445.76 11.5,-174.74 25.4,-352.94 -13.9,-523.05 -39.4,-170.11 -143.5,-336.75 -305.5,-401.55 -6,-2.45 -12.4,-3.98 -18.6,-6.16 h 574.7" /></g></g></g></svg>